# xmcd
#
# Track frame offsets:
#	150
#	37295
#	68040
#	102483
#	119588
#	156520
#	178018
#	192248
#	220340
#	235045
#	252648
#	274705
#	287060
#	304985
#
# Disc length: 4554 seconds
#
# Revision: 0
# Processed by: cddbd v1.5.1PL0 Copyright (c) Steve Scherf et al.
# Submitted via: EasyCDDAExtractor 7.1.3.1
#
DISCID=e011c80e
DTITLE=Jack McDuff - The Last Goodun'
DYEAR=2002
DGENRE=Blues
TTITLE0=Your Nose Is Open
TTITLE1=The Last Goodun'
TTITLE2=Scram
TTITLE3=Dink's Dream
TTITLE4=Groanin'
TTITLE5=Hey Lawdy Mama
TTITLE6=Drown In My Own Tears
TTITLE7=Balad For Baby
TTITLE8=9.20 Special
TTITLE9=It's Alvin Again
TTITLE10=Easy To Love
TTITLE11=What's Shakin'
TTITLE12=The Morning Song
TTITLE13=Twelve Inches Wide
EXTD=
EXTT0=
EXTT1=
EXTT2=
EXTT3=
EXTT4=
EXTT5=
EXTT6=
EXTT7=
EXTT8=
EXTT9=
EXTT10=
EXTT11=
EXTT12=
EXTT13=
PLAYORDER=
